<?xml version='1.0' encoding='utf-8'?>
<svg xmlns="http://www.w3.org/2000/svg" viewBox="0 0 304.22 204"> <defs> <linearGradient id="a" x1="890.62" x2="888" y1="273.19" y2="286.69" gradientUnits="userSpaceOnUse"> <stop stop-color="#eef5fb icc-color(Fogra27L-CMYK-Coated-Press, 0.08085106, 0.01702128, 0.00425532, 0)" offset="0"/> <stop stop-color="#b5d6e5 icc-color(Fogra27L-CMYK-Coated-Press, 0.2638298, 0.01702128, 0.00425532, 0.09787234)" offset="1"/> </linearGradient> </defs> <g transform="matrix(2.1361 -.26262 .26262 2.1361 -1883.6 -216.31)"> <path d="m851.62 253.1c2.4782 8.1916 6.1374 15.838 15.384 20.906-2.3026 20.477 81.702 16.638 91.513 6.7057 6.9066 8.5225 25.679 23.499 27.672 20.933 0.42343-4.0623-3.4001-10.626-6.1362-14.643 6.3379-2.8598 3.8338-11.272-0.48811-10.808-4.5458 0.48742-7.7486 0.99615-10.792-0.41191-4.6719-2.1616-9.8613-1.5778-9.8613-1.5778 1.021-4.0027 2.3254-7.5562-0.98613-10.059l-12.286-9.2837c-6.7752-5.1196-5.8454-12.955-15.129-18.131 4.5426-23.464-6.9166-26.273-30.176-13.806-13.75-1.8264-22.365 1.212-28.401 13.214-8.8289 2.6901-19.58 7.5255-20.314 16.961z" fill="#2c4e8e icc-color(Fogra27L-CMYK-Coated-Press, 0.85106385, 0.70102996, 0.05717555, 0.10730144)"/> <path transform="rotate(21.373)" d="m919.04-95.194a5.449 8.8222 0 0 1 5.449 8.8222 5.449 8.8222 0 0 1-5.449 8.8222 5.449 8.8222 0 0 1-5.449-8.8222 5.449 8.8222 0 0 1 5.449-8.8222" fill="#ffffff icc-color(Fogra27L-CMYK-Coated-Press, 0, 0, 0, 0)"/> <path d="m888.88 246.06c-2.474 0.22774-5.1778 2.7707-6.625 6.4688-1.0352 2.645-1.1985 5.2828-0.59375 7.25 5.1572-1.7888 8.6094-5.2344 7.7812-13.719-0.1868-0.0102-0.37219-0.0175-0.5625 0z" fill="#000200 icc-color(Fogra27L-CMYK-Coated-Press, 1, 1, 1, 1)"/> <path d="m851.62 253.09c2.4782 8.1916 6.1287 15.838 15.375 20.906-2.2898 20.364 80.774 16.685 91.344 6.875l0.15625-3.625-52.719-5.1875c-3.4636-8.3176-13.692-12.487-21.199-5.325-12.415-4.6046-24.517-8.182-32.957-13.644z" fill="url(#a)"/> <path d="m862.91 271.33c1.2355 0.986 2.6185 1.8614 4.0894 2.6709-0.11921 0.6525-0.0804 1.4132 0.0666 2.0105 6.0612 1.4532 14.56 1.2899 22.058-0.76052-7.9532 0.54618-19.042-0.38258-26.214-3.9209z" fill="#83a0af icc-color(Fogra27L-CMYK-Coated-Press, 0.31063831, 0.02978723, 0.00425532, 0.38297874)"/> <path d="m913.12 269c-1.6837 1.032-1.507 3.3281-2.7424 4.3839-1.1664 0.99679-1.893 0.75225-2.6988 1.7626-9.9608 12.49 6.1786 25.735 12.691 32.728 2.581 1.9004 6.0311 2.8843 6.625-2.125 0.63201-6.8878 0.14541-15.23-3.1268-27.193-0.40802-1.4918-2.1094-3.0398-2.6072-4.6484-0.46403-1.4992 0.2815-3.051-0.26601-4.6587z" fill="#2c4e8e icc-color(Fogra27L-CMYK-Coated-Press, 0.85106385, 0.70102996, 0.05717555, 0.10730144)"/> <path d="m945.97 265.78c2.8614 1.5856 5.9467 2.6847 9.4567 2.8608 1.3281 0.12812 0.8509-0.147 0.0751-0.68421-2.5789-1.6521-5.7344-2.3877-9.2748-2.8073-1.7749-0.26164-1.5082-0.0914-0.25774 0.63058z" fill="#b4c9d6 icc-color(Fogra27L-CMYK-Coated-Press, 0.20851064, 0.02978723, 0.00425532, 0.18723404)"/> <path d="m931.38 252.75c-10.134-6.5564-20.057-13.795-32.125-14.5-3.114-0.18181-2.8312-5.3885 1.625-4.25 10.491 2.6801 20.942 6.4143 30.5 18.75z" fill="#b4c9d6 icc-color(Fogra27L-CMYK-Coated-Press, 0.20851064, 0.02978723, 0.00425532, 0.18723404)"/> </g> </svg>